<!DOCTYPE svg PUBLIC "-//W3C//DTD SVG 1.1//EN" "http://www.w3.org/Graphics/SVG/1.1/DTD/svg11.dtd">
<!-- Uploaded to: SVG Repo, www.svgrepo.com, Transformed by: SVG Repo Mixer Tools -->
<svg fill="#ffffff" width="800px" height="800px" viewBox="0 0 24 24" id="email-open" data-name="Flat Line" xmlns="http://www.w3.org/2000/svg" class="icon flat-line">

<g id="SVGRepo_bgCarrier" stroke-width="0"/>

<g id="SVGRepo_tracerCarrier" stroke-linecap="round" stroke-linejoin="round"/>

<g id="SVGRepo_iconCarrier">

<path id="secondary" d="M12.55,14.63,19.45,10a1,1,0,0,1,1.55.83V20a1,1,0,0,1-1,1H4a1,1,0,0,1-1-1V10.87A1,1,0,0,1,4.55,10l6.9,4.59A1,1,0,0,0,12.55,14.63Z" style="fill: #2ca9bc; stroke-width: 2;"/>

<path id="primary" d="M6,11V3H18v8l-5.45,3.63a1,1,0,0,1-1.1,0Zm5.45,3.63L4.55,10A1,1,0,0,0,3,10.87V20a1,1,0,0,0,1,1H20a1,1,0,0,0,1-1V10.87A1,1,0,0,0,19.45,10l-6.9,4.59A1,1,0,0,1,11.45,14.63Z" style="fill: none; stroke: #dee2e6; stroke-linecap: round; stroke-linejoin: round; stroke-width: 2;"/>

</g>

</svg>