<svg version="1.1" xmlns="http://www.w3.org/2000/svg" xmlns:xlink="http://www.w3.org/1999/xlink" width="1560" height="804"><defs/><g><path fill="none" stroke="#fff" paint-order="fill stroke markers" d=" M 20 407.2686476154427 L 21 407.51230060942447 L 22 407.75310646325045 L 23 407.9909407990855 L 24 408.22568077390355 L 25 408.4572051429365 L 26 408.68539432229835 L 27 408.91013045075084 L 28 409.1312974505795 L 29 409.34878108754873 L 30 409.56246902990466 L 31 409.77225090639485 L 32 409.97801836327614 L 33 410.17966512028 L 34 410.3770870255069 L 35 410.57018210922155 L 36 410.7588506365209 L 37 410.9429951588479 L 38 411.12252056432453 L 39 411.2973341268772 L 40 411.4673455541311 L 41 411.6324670340461 L 42 411.7926132802728 L 43 411.9477015762033 L 44 412.0976518176948 L 45 412.2423865544439 L 46 412.3818310299906 L 47 412.51591322033005 L 48 412.64456387111346 L 49 412.7677165334188 L 50 412.8853075980718 L 51 412.99727632850056 L 52 413.1035648921065 L 53 413.2041183901351 L 54 413.2988848860317 L 55 413.387815432267 L 56 413.4708640956187 L 57 413.5479879808963 L 58 413.619147253097 L 59 413.6843051579805 L 60 413.74342804105265 L 61 413.79648536494886 L 62 413.8434497252062 L 63 413.8842968644183 L 64 413.9190056847643 L 65 413.9475582589063 L 66 413.96993983924864 L 67 413.9861388655553 L 68 413.9961469709208 L 69 413.99995898609166 L 70 413.99757294213657 L 71 413.9889900714632 L 72 413.97421480718174 L 73 413.95325478081503 L 74 413.92612081835694 L 75 413.8928269346807 L 76 413.8533903263001 L 77 413.80783136248726 L 78 413.7561735747518 L 79 413.69844364468696 L 80 413.63467139018786 L 81 413.56488975005084 L 82 413.4891347669599 L 83 413.40744556887097 L 84 413.31986434880145 L 85 413.2264363430377 L 86 413.12720980776993 L 87 413.02223599416766 L 88 412.9115691219082 L 89 412.7952663511717 L 90 412.67338775311754 L 91 412.54599627885733 L 92 412.41315772694014 L 93 412.274940709367 L 94 412.13141661615253 L 95 411.98265957845143 L 96 411.8287464302691 L 97 411.6697566687768 L 98 411.5057724132503 L 99 411.33687836265506 L 100 411.1631617518985 L 101 410.98471230677274 L 102 410.80162219761036 L 103 410.6139859916782 L 104 410.4219006043323 L 105 410.2254652489607 L 106 410.0247813857392 L 107 409.81995266922615 L 108 409.6110848948245 L 109 409.39828594413757 L 110 409.18166572924747 L 111 408.96133613594503 L 112 408.73741096593966 L 113 408.51000587808034 L 114 408.27923832861677 L 115 408.0452275105328 L 116 407.80809429198194 L 117 407.5679611538587 L 118 407.32495212653595 L 119 407.0791927258026 L 120 406.83080988803397 L 121 406.579931904628 L 122 406.3266883557421 L 123 406.07121004336415 L 124 405.8136289237523 L 125 405.55407803927864 L 126 405.29269144971204 L 127 405.0296041629753 L 128 404.76495206541284 L 129 404.4988718516042 L 130 404.2315009537605 L 131 403.9629774707399 L 132 403.6934400967184 L 133 403.42302804955364 L 134 403.1518809988777 L 135 402.88013899395685 L 136 402.6079423913553 L 137 402.33543178244 L 138 402.0627479207642 L 139 401.79003164936734 L 140 401.5174238280288 L 141 401.2450652605128 L 142 400.97309662184205 L 143 400.7016583856387 L 144 400.4308907515683 L 145 400.16093357292596 L 146 399.89192628440117 L 147 399.6240078300587 L 148 399.35731659157335 L 149 399.09199031675456 L 150 398.828166048399 L 151 398.56598005350696 L 152 398.3055677528994 L 153 398.0470636512724 L 154 397.7906012677246 L 155 397.5363130667933 L 156 397.2843303900362 L 157 397.03478338819224 L 158 396.78780095395797 L 159 396.54351065541357 L 160 396.30203867013313 L 161 396.06350972001314 L 162 395.82804700685267 L 163 395.59577214871894 L 164 395.3668051171306 L 165 395.14126417509186 L 166 394.91926581600876 L 167 394.70092470351943 L 168 394.4863536122697 L 169 394.2756633696643 L 170 394.0689627986235 L 171 393.8663586613756 L 172 393.6679556043134 L 173 393.4738561039438 L 174 393.2841604139576 L 175 393.09896651344826 L 176 392.91837005630487 L 177 392.7424643218061 L 178 392.5713401664411 L 179 392.40508597698135 L 180 392.24378762482837 L 181 392.0875284216606 L 182 391.9363890764021 L 183 391.7904476535363 L 184 391.6497795327848 L 185 391.5144573701734 L 186 391.38455106050463 L 187 391.260127701257 L 188 391.1412515579282 L 189 391.0279840308417 L 190 390.92038362343345 L 191 390.81850591203397 L 192 390.72240351716295 L 193 390.6321260763505 L 194 390.5477202184991 L 195 390.4692295397991 L 196 390.39669458121136 L 197 390.33015280752744 L 198 390.26963858801884 L 199 390.21518317868487 L 200 390.1668147061088 L 201 390.12455815293066 L 202 390.08843534494275 L 203 390.0584649398172 L 204 390.0346624174689 L 205 390.0170400720599 L 206 390.00560700564955 L 207 390.00036912349316 L 208 390.00132913099185 L 209 390.0084865322955 L 210 390.02183763055825 L 211 390.04137552984855 L 212 390.06709013871074 L 213 390.09896817537714 L 214 390.1369931746285 L 215 390.1811454962983 L 216 390.2314023354168 L 217 390.2877377339903 L 218 390.35012259440845 L 219 390.41852469447326 L 220 390.49290870404235 L 221 390.57323620327685 L 222 390.65946570248593 L 223 390.7515526635561 L 224 390.8494495229557 L 225 390.9531057163016 L 226 391.0624677044763 L 227 391.17747900128103 L 228 391.2980802026112 L 229 391.4242090171392 L 230 391.5558002984883 L 231 391.6927860788809 L 232 391.8350956042447 L 233 391.98265537075747 L 234 392.13538916281226 L 235 392.29321809238326 L 236 392.4560606397721 L 237 392.62383269571325 L 238 392.79644760481693 L 239 392.97381621032747 L 240 393.15584690017306 L 241 393.34244565428406 L 242 393.5335160931553 L 243 393.7289595276263 L 244 393.9286750098551 L 245 394.1325593854586 L 246 394.3405073467923 L 247 394.55241148734245 L 248 394.76816235720236 L 249 394.98764851960374 L 250 395.21075660847487 L 251 395.4373713869947 L 252 395.6673758071135 L 253 395.9006510700089 L 254 396.1370766874465 L 255 396.3765305440126 L 256 396.61888896018775 L 257 396.86402675622804 L 258 397.11181731682115 L 259 397.3621326564842 L 260 397.61484348566916 L 261 397.86981927754135 L 262 398.1269283353979 L 263 398.3860378606897 L 264 398.6470140216129 L 265 398.9097220222337 L 266 399.1740261721118 L 267 399.4397899563847 L 268 399.7068761062793 L 269 399.9751466700118 L 270 400.2444630840405 L 271 400.51468624463524 L 272 400.7856765797251 L 273 401.0572941209883 L 274 401.3293985761471 L 275 401.6018494014293 L 276 401.8745058741603 L 277 402.1472271654472 L 278 402.41987241291775 L 279 402.6923007934771 L 280 402.9643715960434 L 281 403.2359442942263 L 282 403.50687861890964 L 283 403.77703463070156 L 284 404.0462727922139 L 285 404.3144540401345 L 286 404.5814398570538 L 287 404.8470923430107 L 288 405.1112742867183 L 289 405.37384923643464 L 290 405.6346815704409 L 291 405.89363656709094 L 292 406.15058047439595 L 293 406.40538057910817 L 294 406.6579052752684 L 295 406.90802413218086 L 296 407.1556079617822 L 297 407.4005288853674 L 298 407.6426603996403 L 299 407.8818774420534 L 300 408.1180564554032 L 301 408.35107545164874 L 302 408.580814074919 L 303 408.8071536636775 L 304 409.0299773120119 L 305 409.2491699300166 L 306 409.4646183032374 L 307 409.6762111511477 L 308 409.88383918462546 L 309 410.08739516240183 L 310 410.286773946452 L 311 410.48187255629966 L 312 410.67259022220713 L 313 410.85882843722356 L 314 411.0404910080646 L 315 411.2174841047965 L 316 411.38971630930035 L 317 411.55709866248986 L 318 411.71954471025936 L 319 411.87697054813805 L 320 412.0292948646271 L 321 412.1764389831976 L 322 412.31832690292754 L 323 412.45488533775676 L 324 412.58604375433987 L 325 412.7117344084768 L 326 412.83189238010357 L 327 412.9464556068237 L 328 413.05536491596376 L 329 413.1585640551369 L 330 413.25599972129686 L 331 413.34762158827016 L 332 413.4333823327492 L 333 413.5132376587356 L 334 413.587146320419 L 335 413.655070143481 L 336 413.71697404481245 L 337 413.77282605063397 L 338 413.8225973130109 L 339 413.8662621247529 L 340 413.90379793269267 L 341 413.9351853493341 L 342 413.9604081628665 L 343 413.9794533455378 L 344 413.9923110603838 L 345 413.99897466630864 L 346 413.9994407215153 L 347 413.99370898528315 L 348 413.98178241809234 L 349 413.96366718009455 L 350 413.9393726279315 L 351 413.90891130990195 L 352 413.8722989594806 L 353 413.8295544871914 L 354 413.7806999708403 L 355 413.7257606441121 L 356 413.66476488353663 L 357 413.5977441938325 L 358 413.5247331916344 L 359 413.4457695876137 L 360 413.36089416700025 L 361 413.2701507685168 L 362 413.17358626173615 L 363 413.0712505228721 L 364 412.96319640901874 L 365 412.849479730849 L 366 412.73015922378823 L 367 412.6052965176769 L 368 412.4749561049383 L 369 412.33920530726795 L 370 412.1981142408614 L 371 412.05175578019856 L 372 411.90020552040403 L 373 411.74354173820115 L 374 411.5818453514819 L 375 411.4151998775122 L 376 411.2436913897946 L 377 411.06740847361084 L 378 410.8864421802669 L 379 410.70088598006447 L 380 410.5108357140227 L 381 410.3163895443759 L 382 410.1176479038721 L 383 409.9147134438986 L 384 409.7076909814623 L 385 409.4966874450503 L 386 409.28181181940147 L 387 409.06317508921444 L 388 408.84089018182357 L 389 408.6150719088712 L 390 408.3858369070066 L 391 408.15330357764236 L 392 407.9175920257993 L 393 407.67882399807155 L 394 407.43712281974325 L 395 407.1926133310907 L 396 406.9454218229011 L 397 406.69567597124274 L 398 406.4435047715195 L 399 406.1890384718437 L 400 405.932408505762 L 401 405.6737474243695 L 402 405.4131888278458 L 403 405.15086729644975 L 404 404.88691832100795 L 405 404.62147823293265 L 406 404.35468413380585 L 407 404.0866738245652 L 408 403.81758573432916 L 409 403.5475588488971 L 410 403.2767326389626 L 411 403.00524698807556 L 412 402.7332421203916 L 413 402.4608585282452 L 414 402.18823689958464 L 415 401.9155180453057 L 416 401.64284282652176 L 417 401.3703520818082 L 418 401.09818655445827 L 419 400.8264868197884 L 420 400.5553932125298 L 421 400.28504575434494 L 422 400.01558408150527 L 423 399.7471473727682 L 424 399.4798742774903 L 425 399.213902844014 L 426 398.9493704483647 L 427 398.6864137232951 L 428 398.4251684877136 L 429 398.1657696765327 L 430 397.90835127097444 L 431 397.6530462293681 L 432 397.39998641847615 L 433 397.14930254538467 L 434 396.90112408999175 L 435 396.6555792381305 L 436 396.41279481536026 L 437 396.17289622146023 L 438 395.93600736565963 L 439 395.70225060263795 L 440 395.47174666932756 L 441 395.2446146225528 L 442 395.0209717775358 L 443 394.8009336473028 L 444 394.5846138830207 L 445 394.37212421529546 L 446 394.1635743964624 L 447 393.9590721438989 L 448 393.7587230843869 L 449 393.56263069955645 L 450 393.3708962724367 L 451 393.18361883514245 L 452 393.0008951177234 L 453 392.82281949820253 L 454 392.64948395382896 L 455 392.4809780135716 L 456 392.3173887118761 L 457 392.1588005437118 L 458 392.00529542092875 L 459 391.8569526299503 L 460 391.7138487908207 L 461 391.57605781763067 L 462 391.44365088034 L 463 391.31669636801786 L 464 391.1952598535196 L 465 391.07940405961756 L 466 390.96918882660475 L 467 390.8646710813867 L 468 390.7659048080781 L 469 390.6729410201203 L 470 390.5858277339318 L 471 390.504609944108 L 472 390.4293296001809 L 473 390.36002558495187 L 474 390.29673369440866 L 475 390.2394866192363 L 476 390.18831392793226 L 477 390.14324205153406 L 478 390.10429426996745 L 479 390.07149070002237 L 480 390.04484828496214 L 481 390.0243807857725 L 482 390.01009877405374 L 483 390.0020096265605 L 484 390.00011752139153 L 485 390.00442343583194 L 486 390.01492514584805 L 487 390.0316172272363 L 488 390.054491058425 L 489 390.08353482492726 L 490 390.1187335254433 L 491 390.1600689796087 L 492 390.2075198373848 L 493 390.26106159008594 L 494 390.32066658303853 L 495 390.38630402986485 L 496 390.4579400283843 L 497 390.53553757812426 L 498 390.6190565994309 L 499 390.7084539541708 L 500 390.80368346801197 L 501 390.9046959542732 L 502 391.0114392393292 L 503 391.12385818955903 L 504 391.2418947398224 L 505 391.36548792345116 L 506 391.49457390373885 L 507 391.62908600691276 L 508 391.7689547565713 L 509 391.91410790956934 L 510 392.0644704933318 L 511 392.2199648445779 L 512 392.38051064943454 L 513 392.54602498491914 L 514 392.7164223617697 L 515 392.8916147686006 L 516 393.0715117173614 L 517 393.25602029007393 L 518 393.4450451868257 L 519 393.6384887749924 L 520 393.8362511396663 L 521 394.0382301352622 L 522 394.24432143827744 L 523 394.45441860117455 L 524 394.66841310736294 L 525 394.8861944272479 L 526 395.10765007532035 L 527 395.33266566825586 L 528 395.5611249839948 L 529 395.7929100217716 L 530 396.02790106306304 L 531 396.2659767334237 L 532 396.5070140651764 L 533 396.7508885609262 L 534 396.9974742578639 L 535 397.24664379282683 L 536 397.49826846808253 L 537 397.75221831780226 L 538 398.0083621751891 L 539 398.2665677402265 L 540 398.52670164801197 L 541 398.78862953764127 L 542 399.0522161216065 L 543 399.31732525567287 L 544 399.5838200091985 L 545 399.85156273585966 L 546 400.1204151447461 L 547 400.39023837178945 L 548 400.66089305148705 L 549 400.9322393888855 L 550 401.2041372317856 L 551 401.4764461431318 L 552 401.7490254735489 L 553 402.02173443398857 L 554 402.29443216844766 L 555 402.56697782672126 L 556 402.8392306371528 L 557 403.11104997934376 L 558 403.38229545678473 L 559 403.65282696937123 L 560 403.9225047857665 L 561 404.1911896155736 L 562 404.4587426812798 L 563 404.7250257899359 L 564 404.9899014045343 L 565 405.2532327150474 L 566 405.5148837090909 L 567 405.77471924217537 L 568 406.03260510750897 L 569 406.28840810531636 L 570 406.5419961116372 L 571 406.79323814656914 L 572 407.0420044419197 L 573 407.2881665082324 L 574 407.5315972011526 L 575 407.7721707870982 L 576 408.00976300820207 L 577 408.24425114649193 L 578 408.47551408727503 L 579 408.7034323816947 L 580 408.9278883084266 L 581 409.1487659344823 L 582 409.36595117508983 L 583 409.57933185261885 L 584 409.7887977545214 L 585 409.99424069025724 L 586 410.1955545471752 L 587 410.39263534532085 L 588 410.585381291143 L 589 410.7736928300707 L 590 410.9574726979337 L 591 411.13662597120054 L 592 411.3110601160064 L 593 411.48068503594817 L 594 411.64541311861944 L 595 411.8051592808631 L 596 411.9598410127173 L 597 412.1093784200322 L 598 412.25369426573627 L 599 412.39271400972933 L 600 412.5263658473832 L 601 412.6545807466292 L 602 412.777292483614 L 603 412.89443767690403 L 604 413.005955820223 L 605 413.1117893137035 L 606 413.21188349363797 L 607 413.30618666071257 L 608 413.3946501067103 L 609 413.4772281396693 L 610 413.55387810748294 L 611 413.6245604199298 L 612 413.68923856912255 L 613 413.7478791483642 L 614 413.8004518694031 L 615 413.84692957807704 L 616 413.88728826833847 L 617 413.92150709465363 L 618 413.9495683827699 L 619 413.9714576388441 L 620 413.98716355692886 L 621 413.9966780248125 L 622 413.9999961282087 L 623 413.99711615329477 L 624 413.9880395875971 L 625 413.97277111922256 L 626 413.95131863443726 L 627 413.92369321359314 L 628 413.88990912540504 L 629 413.84998381958053 L 630 413.8039379178073 L 631 413.7517952031017 L 632 413.693582607525 L 633 413.6293301982722 L 634 413.5590711621429 L 635 413.48284178839936 L 636 413.4006814500232 L 637 413.31263258337924 L 638 413.2187406662962 L 639 413.1190541945777 L 640 413.01362465695354 L 641 412.90250650848543 L 642 412.7857571424408 L 643 412.6634368606485 L 644 412.5356088423527 L 645 412.4023391115804 L 646 412.2636965030393 L 647 412.1197526265647 L 648 411.9705818301322 L 649 411.81626116145634 L 650 411.65687032819534 L 651 411.49249165678134 L 652 411.32321004989814 L 653 411.1491129426287 L 654 410.970290257294 L 655 410.7868343570078 L 656 410.59883999797046 L 657 410.40640428052643 L 658 410.20962659901176 L 659 410.00860859041586 L 660 409.8034540818854 L 661 409.59426903709715 L 662 409.3811615015266 L 663 409.1642415466422 L 664 408.9436212130523 L 665 408.71941445263576 L 666 408.4917370696848 L 667 408.26070666109143 L 668 408.0264425556079 L 669 407.7890657522125 L 670 407.54869885761275 L 671 407.3054660229185 L 672 407.05949287951654 L 673 406.81090647418176 L 674 406.5598352034561 L 675 406.30640874733115 L 676 406.0507580022676 L 677 405.7930150135863 L 678 405.5333129072657 L 679 405.2717858211818 L 680 405.0085688358249 L 681 404.7437979045295 L 682 404.47760978325357 L 683 404.21014195994314 L 684 403.9415325835191 L 685 403.67192039252194 L 686 403.40144464345275 L 687 403.1302450388461 L 688 402.85846165511265 L 689 402.5862348701892 L 690 402.3137052910318 L 691 402.04101368099214 L 692 401.7683008871118 L 693 401.4957077673739 L 694 401.2233751179491 L 695 400.9514436004735 L 696 400.68005366939565 L 697 400.4093454994313 L 698 400.13945891316195 L 699 399.8705333088156 L 700 399.6027075882667 L 701 399.3361200852923 L 702 399.0709084941218 L 703 398.8072097983171 L 704 398.5451602000192 L 705 398.2848950495995 L 706 398.02654877575003 L 707 397.77025481605017 L 708 397.51614554804536 L 709 397.2643522208731 L 710 397.01500488747206 L 711 396.7682323374087 L 712 396.5241620303566 L 713 396.28292003026286 L 714 396.044630940235 L 715 395.8094178381827 L 716 395.5774022132474 L 717 395.3487039030522 L 718 395.1234410318048 L 719 394.9017299492858 L 720 394.6836851707531 L 721 394.46941931779406 L 722 394.2590430601557 L 723 394.0526650585831 L 724 393.85039190869526 L 725 393.6523280859277 L 726 393.45857589157055 L 727 393.26923539992873 L 728 393.08440440663344 L 729 392.9041783781297 L 730 392.7286504023674 L 731 392.55791114072065 L 732 392.39204878116084 L 733 392.23114899270666 L 734 392.07529488117575 L 735 391.9245669462597 L 736 391.77904303994563 L 737 391.6387983263051 L 738 391.50390524267135 L 739 391.3744334622247 L 740 391.25044985800645 L 741 391.13201846837774 L 742 391.019200463944 L 743 390.9120541159595 L 744 390.8106347662301 L 745 390.7149947985287 L 746 390.6251836115387 L 747 390.5412475933392 L 748 390.4632300974453 L 749 390.39117142041584 L 750 390.3251087810397 L 751 390.2650763011123 L 752 390.2111049878112 L 753 390.16322271768104 L 754 390.1214542222347 L 755 390.08582107517964 L 756 390.05634168127483 L 757 390.0330312668244 L 758 390.0159018718136 L 759 390.0049623436894 L 760 390.0002183327914 L 761 390.001672289433 L 762 390.00932346263573 L 763 390.02316790051754 L 764 390.0431984523336 L 765 390.06940477216983 L 766 390.1017733242866 L 767 390.14028739011025 L 768 390.18492707686784 L 769 390.2356693278626 L 770 390.2924879343821 L 771 390.355353549236 L 772 390.42423370191335 L 773 390.49909281535446 L 774 390.5798922243261 L 775 390.66659019539287 L 776 390.7591419484725 L 777 390.8574996799651 L 778 390.96161258744405 L 779 391.0714268958959 L 780 391.1868858854954 L 781 391.30792992090176 L 782 391.4344964820605 L 783 391.5665201964959 L 784 391.7039328730757 L 785 391.8466635372329 L 786 391.9946384676243 L 787 392.14778123420797 L 788 392.30601273772004 L 789 392.46925125053 L 790 392.6374124588535 L 791 392.8104095063011 L 792 392.9881530387399 L 793 393.1705512504459 L 794 393.3575099315221 L 795 393.5489325165584 L 796 393.74472013450867 L 797 393.9447716597578 L 798 394.1489837643542 L 799 394.35725097137924 L 800 394.5694657094266 L 801 394.78551836816376 L 802 395.00529735494666 L 803 395.2286891524577 L 804 395.4555783773385 L 805 395.6858478397859 L 806 395.9193786040813 L 807 396.1560500500224 L 808 396.3957399352231 L 809 396.6383244582538 L 810 396.8836783225848 L 811 397.13167480130306 L 812 397.3821858025677 L 813 397.63508193577 L 814 397.89023257836465 L 815 398.1475059433372 L 816 398.4067691472727 L 817 398.66788827899137 L 818 398.93072846871405 L 819 399.19515395772373 L 820 399.46102816848565 L 821 399.7282137751906 L 822 399.99657277468464 L 823 400.26596655774836 L 824 400.53625598069004 L 825 400.8073014372138 L 826 401.0789629305274 L 827 401.3511001456514 L 828 401.62357252189287 L 829 401.89623932544606 L 830 402.1689597220821 L 831 402.44159284989087 L 832 402.71399789203736 L 833 402.9860341494942 L 834 403.25756111371373 L 835 403.5284385392019 L 836 403.7985265159554 L 837 404.06768554172686 L 838 404.3357765940781 L 839 404.6026612021862 L 840 404.86820151836514 L 841 405.13226038926445 L 842 405.39470142671007 L 843 405.6553890781498 L 844 405.914188696667 L 845 406.17096661052665 L 846 406.42559019221784 L 847 406.67792792695656 L 848 406.927849480614 L 849 407.17522576703504 L 850 407.4199290147123 L 851 407.6618328327806 L 852 407.90081227629906 L 853 408.13674391078564 L 854 408.3695058759722 L 855 408.5989779487459 L 856 408.82504160524553 L 857 409.0475800820795 L 858 409.2664784366352 L 859 409.48162360644756 L 860 409.69290446759646 L 861 409.90021189210313 L 862 410.1034388042954 L 863 410.3024802361131 L 864 410.49723338132463 L 865 410.687597648627 L 866 410.87347471360215 L 867 411.054768569502 L 868 411.23138557683683 L 869 411.40323451174027 L 870 411.5702266130873 L 871 411.73227562834 L 872 411.88929785809745 L 873 412.0412121993272 L 874 412.18794018725526 L 875 412.3294060358939 L 876 412.4655366771855 L 877 412.5962617987429 L 878 412.7215138801658 L 879 412.8412282279159 L 880 412.9553430087315 L 881 413.06379928156457 L 882 413.1665410280243 L 883 413.2635151813111 L 884 413.35467165362576 L 885 413.43996336204026 L 886 413.51934625281643 L 887 413.59277932415984 L 888 413.6602246473978 L 889 413.7216473865694 L 890 413.7770158164188 L 891 413.82630133878143 L 892 413.8694784973552 L 893 413.90652499084865 L 894 413.9374216845 L 895 413.96215261996025 L 896 413.9807050235357 L 897 413.9930693127857 L 898 413.9992391014721 L 899 413.9992112028578 L 900 413.9929856313526 L 901 413.98056560250586 L 902 413.9619575313456 L 903 413.9371710290651 L 904 413.9062188980586 L 905 413.86911712530906 L 906 413.82588487413034 L 907 413.77654447426943 L 908 413.72112141037314 L 909 413.6596443088249 L 910 413.5921449229591 L 911 413.5186581166603 L 912 413.4392218463556 L 913 413.35387714141046 L 914 413.262668082936 L 915 413.1656417810214 L 916 413.06284835040094 L 917 412.9543408845695 L 918 412.8401754283593 L 919 412.7204109489926 L 920 412.5951093056245 L 921 412.4643352173923 L 922 412.32815622998794 L 923 412.18664268076964 L 924 412.0398676624327 L 925 411.88790698525634 L 926 411.7308391379474 L 927 411.56874524710014 L 928 411.401709035294 L 929 411.2298167778503 L 930 411.05315725827035 L 931 410.8718217223783 L 932 410.6859038311921 L 933 410.4954996125467 L 934 410.3007074114954 L 935 410.10162783951364 L 936 409.8983637225326 L 937 409.6910200478293 L 938 409.4797039097991 L 939 409.2645244546417 L 940 409.0455928239856 L 941 408.82302209748343 L 942 408.59692723440486 L 943 408.3674250142598 L 944 408.13463397648104 L 945 407.8986743591974 L 946 407.65966803713036 L 947 407.41773845864486 L 948 407.17301058198734 L 949 406.92561081074393 L 950 406.67566692855206 L 951 406.4233080330998 L 952 406.16866446944545 L 953 405.91186776269393 L 954 405.6530505500628 L 955 405.39234651237456 L 956 405.12989030500944 L 957 404.865817488355 L 958 404.60026445778834 L 959 404.333368373227 L 960 404.0652670882849 L 961 403.7960990790699 L 962 403.5260033726601 L 963 403.2551194752956 L 964 402.98358730032226 L 965 402.71154709592565 L 966 402.43913937269195 L 967 402.16650483103336 L 968 401.8937842885152 L 969 401.6211186071228 L 970 401.3486486205055 L 971 401.07651506123494 L 972 400.8048584881156 L 973 400.5338192135857 L 974 400.2635372312443 L 975 399.9941521435442 L 976 399.72580308968617 L 977 399.4586286737524 L 978 399.19276689311664 L 979 398.928355067168 L 980 398.6655297663841 L 981 398.40442674179184 L 982 398.14518085485076 L 983 397.8879260077965 L 984 397.6327950744792 L 985 397.37991983173345 L 986 397.1294308913144 L 987 396.8814576324363 L 988 396.6361281349469 L 989 396.3935691131734 L 990 396.1539058504739 L 991 395.91726213452756 L 992 395.68376019339746 L 993 395.45352063239886 L 994 395.2266623718059 L 995 395.00330258542834 L 996 394.78355664009075 L 997 394.5675380360446 L 998 394.35535834834445 L 999 394.1471271692192 L 1000 393.94295205146625 L 1001 393.74293845290043 L 1002 393.54718968188405 L 1003 393.3558068439673 L 1004 393.1688887896669 L 1005 392.9865320634087 L 1006 392.8088308536623 L 1007 392.63587694429185 L 1008 392.467759667149 L 1009 392.3045658559325 L 1010 392.146379801338 L 1011 391.99328320752136 L 1012 391.84535514989796 L 1013 391.7026720342995 L 1014 391.5653075575101 L 1015 391.4333326692013 L 1016 391.30681553528626 L 1017 391.18582150271124 L 1018 391.0704130657039 L 1019 390.9606498334943 L 1020 390.8565884995264 L 1021 390.75828281217576 L 1022 390.6657835469877 L 1023 390.5791384804518 L 1024 390.4983923653247 L 1025 390.42358690751536 L 1026 390.35476074454334 L 1027 390.2919494255824 L 1028 390.23518539309924 L 1029 390.18449796609644 L 1030 390.13991332496926 L 1031 390.1014544979833 L 1032 390.06914134938006 L 1033 390.042990569117 L 1034 390.0230156642472 L 1035 390.00922695194276 L 1036 390.00163155416567 L 1037 390.0002333939899 L 1038 390.0050331935745 L 1039 390.01602847379075 L 1040 390.033213555503 L 1041 390.0565795625014 L 1042 390.086114426087 L 1043 390.12180289130515 L 1044 390.1636265248247 L 1045 390.2115637244589 L 1046 390.26558973032354 L 1047 390.32567663762484 L 1048 390.39179341107314 L 1049 390.46390590091244 L 1050 390.54197686055915 L 1051 390.6259659658401 L 1052 390.71582983582033 L 1053 390.8115220552096 L 1054 390.9129931983361 L 1055 391.0201908546754 L 1056 391.13305965592053 L 1057 391.25154130458026 L 1058 391.37557460409016 L 1059 391.5050954904209 L 1060 391.640037065168 L 1061 391.7803296301048 L 1062 391.92590072318274 L 1063 392.076675155958 L 1064 392.23257505242697 L 1065 392.3935198892498 L 1066 392.55942653734104 L 1067 392.73020930480675 L 1068 392.90577998120455 L 1069 393.08604788310504 L 1070 393.2709199009304 L 1071 393.46030054704624 L 1072 393.65409200508145 L 1073 393.85219418045097 L 1074 394.0545047520554 L 1075 394.2609192251305 L 1076 394.47133098521954 L 1077 394.68563135324035 L 1078 394.9037096416185 L 1079 395.12545321145865 L 1080 395.3507475307229 L 1081 395.57947623338765 L 1082 395.8115211795471 L 1083 396.0467625164337 L 1084 396.28507874032255 L 1085 396.5263467592891 L 1086 396.77044195678684 L 1087 397.0172382560126 L 1088 397.2666081850263 L 1089 397.51842294259063 L 1090 397.772552464698 L 1091 398.0288654917495 L 1092 398.2872296363513 L 1093 398.54751145169365 L 1094 398.8095765004769 L 1095 399.0732894243496 L 1096 399.33851401382157 L 1097 399.60511327861735 L 1098 399.8729495184325 L 1099 400.14188439405666 L 1100 400.4117789988267 L 1101 400.682493930373 L 1102 400.95388936262174 L 1103 401.2258251180157 L 1104 401.49816073991735 L 1105 401.7707555651554 L 1106 402.04346879667827 L 1107 402.31615957627673 L 1108 402.5886870573382 L 1109 402.8609104775947 L 1110 403.1326892318279 L 1111 403.40388294449235 L 1112 403.6743515422205 L 1113 403.94395532617153 L 1114 404.2125550441867 L 1115 404.480011962714 L 1116 404.74618793846514 L 1117 405.01094548976715 L 1118 405.27414786757305 L 1119 405.5356591260931 L 1120 405.79534419301217 L 1121 406.0530689392552 L 1122 406.308700248266 L 1123 406.56210608476266 L 1124 406.81315556293464 L 1125 407.0617190140464 L 1126 407.3076680534118 L 1127 407.55087564670623 L 1128 407.79121617557985 L 1129 408.02856550254114 L 1130 408.2628010350743 L 1131 408.493801788959 L 1132 408.72144845076 L 1133 408.945623439453 L 1134 409.16621096715596 L 1135 409.3830970989346 L 1136 409.59616981165027 L 1137 409.805319051821 L 1138 410.0104367924644 L 1139 410.2114170888947 L 1140 410.40815613344375 L 1141 410.60055230907835 L 1142 410.7885062418862 L 1143 410.9719208524031 L 1144 411.1507014057552 L 1145 411.3247555605903 L 1146 411.49399341677247 L 1147 411.6583275618164 L 1148 411.81767311603636 L 1149 411.97194777638725 L 1150 412.1210718589744 L 1151 412.2649683402112 L 1152 412.4035628966021 L 1153 412.5367839431311 L 1154 412.6645626702362 L 1155 412.7868330793496 L 1156 412.90353201698673 L 1157 413.0145992073653 L 1158 413.1199772835381 L 1159 413.21961181702363 L 1160 413.3134513459185 L 1161 413.40144740147804 L 1162 413.4835545331506 L 1163 413.55973033205316 L 1164 413.6299354528759 L 1165 413.6941336342039 L 1166 413.752291717247 L 1167 413.804379662966 L 1168 413.8503705675884 L 1169 413.8902406765041 L 1170 413.923969396535 L 1171 413.95153930657165 L 1172 413.9729361665708 L 1173 413.9881489249111 L 1174 413.9971697241012 L 1175 413.99999390483777 L 1176 413.99662000841266 L 1177 413.98704977746587 L 1178 413.97128815508586 L 1179 413.94934328225594 L 1180 413.9212264936499 L 1181 413.8869523117772 L 1182 413.84653843948206 L 1183 413.8000057508001 L 1184 413.74737828017646 L 1185 413.6886832100518 L 1186 413.6239508568228 L 1187 413.553214655183 L 1188 413.47651114085403 L 1189 413.39387993171437 L 1190 413.3053637073365 L 1191 413.21100818694276 L 1192 413.1108621057909 L 1193 413.004977190002 L 1194 412.89340812984375 L 1195 412.77621255148244 L 1196 412.65345098721855 L 1197 412.5251868442216 L 1198 412.39148637177993 L 1199 412.25241862708225 L 1200 412.1080554395495 L 1201 411.95847137373414 L 1202 411.80374369080727 L 1203 411.64395230865256 L 1204 411.4791797605884 L 1205 411.3095111527386 L 1206 411.1350341200745 L 1207 410.95583878115133 L 1208 410.7720176915608 L 1209 410.5836657961259 L 1210 410.3908803798612 L 1211 410.19376101772434 L 1212 409.99240952318524 L 1213 409.78692989563825 L 1214 409.5774282666862 L 1215 409.3640128453225 L 1216 409.1467938620406 L 1217 408.92588351189914 L 1218 408.7013958965723 L 1219 408.473446965416 L 1220 408.24215445557843 L 1221 408.00763783118896 L 1222 407.7700182216537 L 1223 407.5294183590911 L 1224 407.2859625149405 L 1225 407.0397764357746 L 1226 406.79098727835105 L 1227 406.53972354393454 L 1228 406.2861150119255 L 1229 406.030292672828 L 1230 405.7723886605924 L 1231 405.5125361843668 L 1232 405.25086945969446 L 1233 404.98752363918965 L 1234 404.7226347427313 L 1235 404.45633958720714 L 1236 404.1887757158471 L 1237 403.9200813271815 L 1238 403.65039520366025 L 1239 403.379856639971 L 1240 403.1086053710926 L 1241 402.83678150012076 L 1242 402.56452542590387 L 1243 402.29197777052644 L 1244 402.0192793066764 L 1245 401.7465708849355 L 1246 401.4739933610287 L 1247 401.2016875230711 L 1248 400.92979401885054 L 1249 400.65845328318164 L 1250 400.3878054653702 L 1251 400.11799035682554 L 1252 399.8491473188569 L 1253 399.5814152106927 L 1254 399.31493231775846 L 1255 399.0498362802519 L 1256 398.78626402205055 L 1257 398.5243516799897 L 1258 398.26423453354687 L 1259 398.00604693496905 L 1260 397.74992223987886 L 1261 397.49599273839533 L 1262 397.2443895868055 L 1263 396.9952427398209 L 1264 396.74868088345556 L 1265 396.50483136855826 L 1266 396.2638201450355 L 1267 396.02577169679716 L 1268 395.7908089774599 L 1269 395.55905334684076 L 1270 395.3306245082739 L 1271 395.1056404467833 L 1272 394.88421736814234 L 1273 394.66646963885313 L 1274 394.452509727075 L 1275 394.24244814453436 L 1276 394.0363933894444 L 1277 393.8344518904652 L 1278 393.6367279517324 L 1279 393.44332369898365 L 1280 393.2543390268099 L 1281 393.06987154705905 L 1282 392.89001653841893 L 1283 392.71486689720524 L 1284 392.5445130893798 L 1285 392.3790431038245 L 1286 392.2185424068942 L 1287 392.06309389827305 L 1288 391.9127778681561 L 1289 391.76767195577895 L 1290 391.62785110931645 L 1291 391.49338754717144 L 1292 391.36435072067377 L 1293 391.2408072782078 L 1294 391.1228210307885 L 1295 391.0104529191022 L 1296 390.9037609820307 L 1297 390.8028003266734 L 1298 390.7076230998846 L 1299 390.6182784613388 L 1300 390.5348125581398 L 1301 390.45726850098515 L 1302 390.38568634189943 L 1303 390.3201030535468 L 1304 390.2605525101347 L 1305 390.20706546991715 L 1306 390.15966955930855 L 1307 390.11838925861395 L 1308 390.0832458893848 L 1309 390.05425760340654 L 1310 390.03143937332294 L 1311 390.0148029849025 L 1312 390.00435703095116 L 1313 390.0001069068741 L 1314 390.00205480788884 L 1315 390.0101997278914 L 1316 390.0245374599762 L 1317 390.0450605986086 L 1318 390.07175854345013 L 1319 390.10461750483364 L 1320 390.1436205108857 L 1321 390.18874741629253 L 1322 390.2399749127056 L 1323 390.2972765407801 L 1324 390.36062270384167 L 1325 390.42998068317314 L 1326 390.505314654914 L 1327 390.58658570856375 L 1328 390.67375186707915 L 1329 390.766768108556 L 1330 390.86558638948316 L 1331 390.9701556695571 L 1332 391.0804219380448 L 1333 391.19632824168076 L 1334 391.31781471408334 L 1335 391.44481860667656 L 1336 391.5772743210999 L 1337 391.71511344309033 L 1338 391.858264777819 L 1339 392.00665438666334 L 1340 392.1602056253974 L 1341 392.31883918377866 L 1342 392.48247312651256 L 1343 392.65102293557266 L 1344 392.82440155385444 L 1345 393.00251943014126 L 1346 393.185284565358 L 1347 393.37260256008915 L 1348 393.56437666333676 L 1349 393.76050782249314 L 1350 393.96089473450195 L 1351 394.16543389818196 L 1352 394.37401966768635 L 1353 394.58654430706923 L 1354 394.802898045932 L 1355 395.0229691361206 L 1356 395.24664390944406 L 1357 395.4738068363851 L 1358 395.70434058577166 L 1359 395.9381260853793 L 1360 396.17504258343286 L 1361 396.4149677109756 L 1362 396.6577775450734 L 1363 396.9033466728219 L 1364 397.1515482561232 L 1365 397.40225409719847 L 1366 397.65533470480295 L 1367 397.91065936110897 L 1368 398.16809618922287 L 1369 398.42751222130005 L 1370 398.6887734672237 L 1371 398.951744983812 L 1372 399.2162909445165 L 1373 399.4822747095781 L 1374 399.7495588966021 L 1375 400.01800545151707 L 1376 400.2874757198808 L 1377 400.55783051849625 L 1378 400.8289302073006 L 1379 401.10063476149026 L 1380 401.3728038438446 L 1381 401.64529687721114 L 1382 401.9179731171144 L 1383 402.19069172445165 L 1384 402.463311838237 L 1385 402.73569264835726 L 1386 403.00769346830094 L 1387 403.27917380782435 L 1388 403.5499934455151 L 1389 403.8200125012179 L 1390 404.08909150828345 L 1391 404.35709148560375 L 1392 404.6238740093969 L 1393 404.88930128470395 L 1394 405.1532362165608 L 1395 405.41554248080877 L 1396 405.67608459450696 L 1397 405.93472798590994 L 1398 406.191339063975 L 1399 406.4457852873631 L 1400 406.6979352328968 L 1401 406.94765866344187 L 1402 407.1948265951751 L 1403 407.4393113642056 L 1404 407.6809866925139 L 1405 407.9197277531756 L 1406 408.155411234835 L 1407 408.38791540539665 L 1408 408.61712017490026 L 1409 408.8429071575486 L 1410 409.06515973285394 L 1411 409.2837631058737 L 1412 409.4986043665028 L 1413 409.7095725477922 L 1414 409.9165586832644 L 1415 410.11945586319524 L 1416 410.3181592898333 L 1417 410.512566331529 L 1418 410.7025765757442 L 1419 410.8880918809161 L 1420 411.069016427148 L 1421 411.24525676570096 L 1422 411.41672186726066 L 1423 411.58332316895456 L 1424 411.7449746200954 L 1425 411.90159272662675 L 1426 412.0530965942485 L 1427 412.19940797019905 L 1428 412.3404512836736 L 1429 412.4761536848567 L 1430 412.60644508254995 L 1431 412.7312581803746 L 1432 412.8505285115302 L 1433 412.9641944720925 L 1434 413.07219735283223 L 1435 413.17448136953857 L 1436 413.2709936918324 L 1437 413.36168447045344 L 1438 413.4465068630075 L 1439 413.52541705816117 L 1440 413.5983742982705 L 1441 413.6653409004328 L 1442 413.7262822759498 L 1443 413.78116694819323 L 1444 413.8299665688626 L 1445 413.87265593262714 L 1446 413.90921299014485 L 1447 413.9396188594508 L 1448 413.9638578357101 L 1449 413.9819173993292 L 1450 413.99378822242267 L 1451 413.99946417363094 L 1452 413.9989423212872 L 1453 413.9922229349317 L 1454 413.97930948517245 L 1455 413.9602086418927 L 1456 413.9349302708058 L 1457 413.9034874283596 L 1458 413.8658963549927 L 1459 413.822176466746 L 1460 413.77235034523443 L 1461 413.71644372598314 L 1462 413.6544854851352 L 1463 413.58650762453664 L 1464 413.51254525520744 L 1465 413.43263657920625 L 1466 413.3468228698991 L 1467 413.2551484506411 L 1468 413.15766067188343 L 1469 413.05440988671614 L 1470 412.94544942486084 L 1471 412.83083556512526 L 1472 412.71062750633496 L 1473 412.5848873367569 L 1474 412.4536800020301 L 1475 412.3170732716211 L 1476 412.1751377038204 L 1477 412.0279466092986 L 1478 411.87557601324124 L 1479 411.7181046160808 L 1480 411.5556137528478 L 1481 411.3881873511606 L 1482 411.21591188787613 L 1483 411.0388763444242 L 1484 410.8571721608477 L 1485 410.67089318857364 L 1486 410.48013564193775 L 1487 410.28499804848957 L 1488 410.0855811981021 L 1489 409.88198809091307 L 1490 409.674323884125 L 1491 409.4626958376905 L 1492 409.24721325891164 L 1493 409.0279874459827 L 1494 408.8051316305032 L 1495 408.5787609189932 L 1496 408.3489922334403 L 1497 408.11594425090817 L 1498 407.8797373422396 L 1499 407.64049350988364 L 1500 407.3983363248809 L 1501 407.153390863038 L 1502 406.9057836403254 L 1503 406.6556425475306 L 1504 406.40309678420215 L 1505 406.14827679191694 L 1506 405.8913141869064 L 1507 405.6323416920758 L 1508 405.37149306845174 L 1509 405.1089030460942 L 1510 404.844707254507 L 1511 404.5790421525847 L 1512 404.31204495813034 L 1513 404.04385357698186 L 1514 403.77460653178235 L 1515 403.5044428904326 L 1516 403.23350219426146 L 1517 402.96192438595176 L 1518 402.68984973725907 L 1519 402.4174187765603 L 1520 402.14477221626987 L 1521 401.87205088016077 L 1522 401.59939563062846 L 1523 401.3269472959339 L 1524 401.05484659746554 L 1525 400.7832340770549 L 1526 400.5122500243866 L 1527 400.24203440453755 L 1528 399.9727267856837 L 1529 399.70446626701255 L 1530 399.43739140687734 L 1531 399.1716401512307 L 1532 398.9073497623747 L 1533 398.644656748064 L 1534 398.3836967909985 L 1535 398.1246046787426 L 1536 397.8675142341062 L 1537 397.61255824602443 L 1538 397.3598684009715 L 1539 397.10957521494356" stroke-linecap="round" stroke-linejoin="round" stroke-miterlimit="10" stroke-width="6"/></g></svg>